<?xml version="1.0" encoding="UTF-8"?>
<svg version="1.1" xmlns="http://www.w3.org/2000/svg" width="24" height="24">
<path d="M0 0 C2.31 0 4.62 0 7 0 C7 0.66 7 1.32 7 2 C7.66 2 8.32 2 9 2 C8.9071875 2.73089844 8.814375 3.46179688 8.71875 4.21484375 C9.10416862 8.03155866 10.67260296 9.05362145 13.5 11.5625 C16.03125 13.81640625 16.03125 13.81640625 18 16 C18 17.32 18 18.64 18 20 C14.1883799 19.45065342 12.70106291 17.89345782 10.1875 15.0625 C6.57428508 11.27303069 4.13026653 9.85504442 -1 9 C-1.80967438 6.08517222 -2.21845993 4.53886783 -1.0625 1.6875 C-0.711875 1.130625 -0.36125 0.57375 0 0 Z " fill="#3A331B" transform="translate(4,2)"/>
<path d="M0 0 C1.16536749 1.16536749 2.32957284 2.33191751 3.48828125 3.50390625 C4.52782169 4.53270209 5.58931662 5.53963185 6.66796875 6.52734375 C8.18519024 7.9436574 9.5989762 9.4686484 11 11 C11 12.32 11 13.64 11 15 C7.37386801 14.43040847 5.74482259 13.07625466 3.25 10.4375 C2.63640625 9.79683594 2.0228125 9.15617187 1.390625 8.49609375 C0.93171875 8.00238281 0.4728125 7.50867188 0 7 C0.33 6.34 0.66 5.68 1 5 C1.99 5.66 2.98 6.32 4 7 C2.35 5.02 0.7 3.04 -1 1 C-0.67 0.67 -0.34 0.34 0 0 Z " fill="#080A0B" transform="translate(11,7)"/>
<path d="M0 0 C1.32 0 2.64 0 4 0 C4 0.66 4 1.32 4 2 C4.66 2 5.32 2 6 2 C5.875 3.875 5.875 3.875 5 6 C1.9375 7.25 1.9375 7.25 -1 8 C-1 7.34 -1 6.68 -1 6 C-1.66 5.67 -2.32 5.34 -3 5 C-2.67 4.01 -2.34 3.02 -2 2 C-1.34 2 -0.68 2 0 2 C0 1.34 0 0.68 0 0 Z " fill="#5C4103" transform="translate(7,2)"/>
<path d="M0 0 C1.9375 0.375 1.9375 0.375 4 1 C4.33 1.66 4.66 2.32 5 3 C3.35 3.66 1.7 4.32 0 5 C0 4.34 0 3.68 0 3 C-0.66 2.67 -1.32 2.34 -2 2 C-1.34 2 -0.68 2 0 2 C0 1.34 0 0.68 0 0 Z " fill="#EAB207" transform="translate(6,5)"/>
</svg>
